# xmcd CD database file
#
# Track frame offsets:
#	225
#	9311
#	23323
#	37574
#	49928
#	63884
#	75057
#	92771
#	106996
#	122795
#	134211
#	148504
#	164744
#	181818
#	199924
#	211175
#	226390
#	248906
#
# Disc length: 3461 seconds
#
# Revision: 0
# Processed by: cddbd v1.4PL0 Copyright (c) Steve Scherf et al.
# Submitted via: CDex 1.50beta10
#
DISCID=e40d8212
DTITLE=Ella Fitzgerald - The Ella Fitzgerald Collection - Vol one
DYEAR=1900
DGENRE=Jazz
TTITLE0=Lover come back
TTITLE1=The start hour
TTITLE2=Stairway to the stars
TTITLE3=I've got you under my skin
TTITLE4=Night and day
TTITLE5=Flyin' home
TTITLE6=Love is here to stay
TTITLE7=My cousin in Milwaukee
TTITLE8=It's wonderful
TTITLE9=By Strauss
TTITLE10=Shall we dance?
TTITLE11=It's only a paper moon
TTITLE12=Cheek to Ckeek
TTITLE13=How high is the moon
TTITLE14=Lullaby of Broadway
TTITLE15=The lady is a tramp
TTITLE16=Love Paris
TTITLE17=You do something to me
EXTD=
EXTT0=
EXTT1=
EXTT2=
EXTT3=
EXTT4=
EXTT5=
EXTT6=
EXTT7=
EXTT8=
EXTT9=
EXTT10=
EXTT11=
EXTT12=
EXTT13=
EXTT14=
EXTT15=
EXTT16=
EXTT17=
PLAYORDER=
